Coordinates
version=1
nRows=43
nColumns=12
inDegrees=yes

Units are S.I. units (second, meters, Newtons, ...)
Angles are in degrees

endheader
time	SC_y	SC_z	SC_x	AC_y	AC_z	AC_x	GH_y	GH_z	GH_yy	EL_x	PS_y
       0.0               -39.1          32.26          78.09          67.72           6.97           3.93         -110.8          28.53          144.9          74.01          148.7
   0.02328               -39.1          32.26          78.08          67.72          6.967          3.931         -110.8          28.53          144.8          74.01          148.7
   0.04656               -39.1          32.25          78.07          67.72          6.964          3.932         -110.8          28.53          144.8          74.01          148.7
   0.06984              -39.11          32.25          78.06          67.71          6.961          3.934         -110.8          28.52          144.8           74.0          148.7
   0.09313              -39.11          32.24          78.05          67.71          6.957          3.936         -110.8          28.52          144.8          73.99          148.7
    0.1164              -39.11          32.24          78.04          67.71          6.954          3.937         -110.7          28.52          144.8          73.99          148.7
    0.1397              -39.11          32.23          78.03          67.71           6.95          3.939         -110.7          28.51          144.8          73.98          148.6
     0.163              -39.12          32.23          78.02           67.7          6.946          3.941         -110.7          28.51          144.7          73.98          148.6
    0.1863              -39.12          32.22          78.01           67.7          6.942          3.943         -110.7           28.5          144.7          73.97          148.6
    0.2095              -39.12          32.21           78.0           67.7          6.937          3.946         -110.6          28.49          144.7          73.96          148.6
    0.2328              -39.13           32.2          77.98          67.69          6.932          3.948         -110.6          28.49          144.6          73.95          148.6
    0.2561              -39.13          32.19          77.97          67.69          6.926          3.951         -110.5          28.48          144.6          73.94          148.6
    0.2794              -39.14          32.18          77.95          67.69           6.92          3.954         -110.5          28.47          144.6          73.93          148.6
    0.3027              -39.14          32.17          77.93          67.68          6.914          3.957         -110.5          28.47          144.5          73.92          148.5
    0.3259              -39.15          32.16          77.91          67.68          6.907           3.96         -110.4          28.46          144.5          73.91          148.5
    0.3492              -39.15          32.15          77.89          67.67            6.9          3.964         -110.4          28.45          144.5           73.9          148.5
    0.3725              -39.16          32.14          77.87          67.67          6.892          3.968         -110.3          28.44          144.4          73.89          148.5
    0.3958              -39.17          32.12          77.85          67.66          6.883          3.972         -110.2          28.43          144.4          73.87          148.4
    0.4191              -39.17          32.11          77.82          67.66          6.873          3.976         -110.2          28.42          144.3          73.86          148.4
    0.4424              -39.18          32.09          77.79          67.65          6.863          3.982         -110.1           28.4          144.3          73.84          148.4
    0.4656              -39.19          32.07          77.76          67.64          6.851          3.987         -110.0          28.39          144.2          73.82          148.3
    0.4889               -39.2          32.05          77.72          67.63          6.838          3.993         -109.9          28.37          144.1           73.8          148.3
    0.5122              -39.21          32.03          77.68          67.62          6.824            4.0         -109.8          28.36          144.0          73.78          148.2
    0.5355              -39.22           32.0          77.64          67.61          6.809          4.008         -109.7          28.34          143.9          73.75          148.2
    0.5588              -39.24          31.97          77.59           67.6          6.791          4.016         -109.6          28.32          143.9          73.72          148.1
     0.582              -39.25          31.94          77.54          67.59          6.772          4.026         -109.5          28.29          143.7          73.69          148.1
    0.6053              -39.27           31.9          77.48          67.58           6.75          4.036         -109.3          28.27          143.6          73.66          148.0
    0.6286              -39.29          31.86          77.41          67.56          6.726          4.048         -109.2          28.24          143.5          73.62          147.9
    0.6519              -39.31          31.82          77.33          67.54          6.698          4.061         -109.0           28.2          143.3          73.57          147.8
    0.6752              -39.33          31.77          77.24          67.52          6.667          4.076         -108.8          28.16          143.1          73.52          147.7
    0.6984              -39.36          31.71          77.15           67.5          6.631          4.094         -108.5          28.12          142.9          73.46          147.6
    0.7217              -39.39          31.64          77.03          67.47           6.59          4.114         -108.2          28.07          142.7           73.4          147.5
     0.745              -39.43          31.56           76.9          67.44          6.543          4.137         -107.9          28.01          142.4          73.32          147.3
    0.7683              -39.47          31.47          76.75          67.41          6.488          4.163         -107.5          27.95          142.1          73.23          147.1
    0.7916              -39.52          31.37          76.57          67.36          6.424          4.195         -107.1          27.87          141.8          73.12          146.9
    0.8149              -39.58          31.24          76.35          67.31          6.348          4.231         -106.6          27.77          141.3           73.0          146.6
    0.8381              -39.65           31.1           76.1          67.26          6.258          4.275         -106.0          27.66          140.8          72.85          146.3
    0.8614              -39.73          30.92           75.8          67.19           6.15          4.327         -105.2          27.53          140.2          72.68          146.0
    0.8847              -39.83          30.71          75.44           67.1          6.019          4.391         -104.3          27.37          139.5          72.46          145.5
     0.908              -39.95          30.44          74.99           67.0           5.86          4.468         -103.2          27.18          138.6           72.2          145.0
    0.9313               -40.1          30.12          74.44          66.87          5.663          4.564         -101.9          26.94          137.4          71.88          144.4
    0.9545              -40.29          29.72          73.76          66.71          5.417          4.683         -100.2          26.63          136.1          71.48          143.5
    0.9778              -40.53          29.21          72.89          66.51          5.107          4.833         -98.05          26.26          134.3          70.98          142.5
